<!DOCTYPE svg PUBLIC "-//W3C//DTD SVG 1.1//EN" "http://www.w3.org/Graphics/SVG/1.1/DTD/svg11.dtd">

<!-- Uploaded to: SVG Repo, www.svgrepo.com, Transformed by: SVG Repo Mixer Tools -->
<svg fill="#f7e602" version="1.1" id="Capa_1" xmlns="http://www.w3.org/2000/svg" xmlns:xlink="http://www.w3.org/1999/xlink" viewBox="0 0 60 60" xml:space="preserve" width="256px" height="256px">

<g id="SVGRepo_bgCarrier" stroke-width="0"/>

<g id="SVGRepo_tracerCarrier" stroke-linecap="round" stroke-linejoin="round"/>

<g id="SVGRepo_iconCarrier"> <g> <path d="M60,41.5h-9.29c-0.521-1.176-1.695-2-3.061-2H37.351C35.503,39.5,34,41.003,34,42.851v11.299 c0,1.848,1.503,3.351,3.351,3.351h10.299c1.366,0,2.54-0.825,3.061-2H60V41.5z M46,51.5c0,0.552-0.447,1-1,1h-5 c-0.553,0-1-0.448-1-1v-6c0-0.552,0.447-1,1-1h5c0.553,0,1,0.448,1,1V51.5z M58,53.5h-7v-10h7V53.5z"/> <path d="M28.896,42.5h-3.481l-2.707-2.707c-0.022-0.023-0.053-0.032-0.078-0.052L59.87,2.5H40.071L1.134,41.438 C1.115,41.456,1.105,41.48,1.087,41.5H0v14h12v1c0,0.552,0.447,1,1,1h4h5c0.266,0,0.52-0.105,0.707-0.293l2.707-2.707h3.481 c1.712,0,3.104-1.393,3.104-3.104v-5.791C32,43.893,30.607,42.5,28.896,42.5z M2,53.5v-10h10v10H2z M14,43.5v-2h2v14h-2V43.5z M21.586,55.5H18v-14h2.87h0.716L24,43.914v9.172L21.586,55.5z M30,51.396c0,0.609-0.495,1.104-1.104,1.104H26v-8h2.896 c0.609,0,1.104,0.496,1.104,1.104V51.396z"/> <rect x="27" y="46.5" width="2" height="4"/> </g> </g>

</svg>